<mxfile host="app.diagrams.net" modified="2021-06-04T20:23:03.640Z" agent="5.0 (X11; Linux x86_64) AppleWebKit/537.36 (KHTML, like Gecko) Chrome/90.0.4430.212 Safari/537.36" etag="xSxvLa80VlaxblXdZwHD" version="14.7.3" type="github" pages="3">
  <diagram id="z6xitD5UF4agk967kl1B" name="Ejercicio-1">
    <mxGraphModel dx="1731" dy="538" grid="1" gridSize="10" guides="1" tooltips="1" connect="1" arrows="1" fold="1" page="1" pageScale="1" pageWidth="827" pageHeight="1169" math="0" shadow="0">
      <root>
        <mxCell id="0" />
        <mxCell id="1" parent="0" />
        <mxCell id="HNwX9adKFCQNDG31WCgz-1" value="INT" style="ellipse;whiteSpace=wrap;html=1;" vertex="1" parent="1">
          <mxGeometry x="20" y="240" width="60" height="40" as="geometry" />
        </mxCell>
        <mxCell id="HNwX9adKFCQNDG31WCgz-7" value="" style="edgeStyle=orthogonalEdgeStyle;rounded=0;orthogonalLoop=1;jettySize=auto;html=1;" edge="1" parent="1" source="HNwX9adKFCQNDG31WCgz-2" target="HNwX9adKFCQNDG31WCgz-3">
          <mxGeometry relative="1" as="geometry">
            <Array as="points">
              <mxPoint x="50" y="340" />
              <mxPoint x="50" y="340" />
            </Array>
          </mxGeometry>
        </mxCell>
        <mxCell id="HNwX9adKFCQNDG31WCgz-2" value="PRINTF" style="ellipse;whiteSpace=wrap;html=1;" vertex="1" parent="1">
          <mxGeometry x="20" y="300" width="60" height="40" as="geometry" />
        </mxCell>
        <mxCell id="HNwX9adKFCQNDG31WCgz-3" value="SCANF E" style="ellipse;whiteSpace=wrap;html=1;" vertex="1" parent="1">
          <mxGeometry x="20" y="360" width="60" height="40" as="geometry" />
        </mxCell>
        <mxCell id="HNwX9adKFCQNDG31WCgz-4" value="" style="endArrow=classic;html=1;exitX=0.5;exitY=1;exitDx=0;exitDy=0;entryX=0.5;entryY=0;entryDx=0;entryDy=0;" edge="1" parent="1" source="HNwX9adKFCQNDG31WCgz-1" target="HNwX9adKFCQNDG31WCgz-2">
          <mxGeometry width="50" height="50" relative="1" as="geometry">
            <mxPoint x="40" y="300" as="sourcePoint" />
            <mxPoint x="100" y="290" as="targetPoint" />
          </mxGeometry>
        </mxCell>
        <mxCell id="HNwX9adKFCQNDG31WCgz-5" value="" style="endArrow=classic;html=1;entryX=0.5;entryY=0;entryDx=0;entryDy=0;" edge="1" parent="1" target="HNwX9adKFCQNDG31WCgz-3">
          <mxGeometry width="50" height="50" relative="1" as="geometry">
            <mxPoint x="50" y="350" as="sourcePoint" />
            <mxPoint x="60" y="330" as="targetPoint" />
          </mxGeometry>
        </mxCell>
        <mxCell id="HNwX9adKFCQNDG31WCgz-8" value="IF E% &amp;lt; 18" style="ellipse;whiteSpace=wrap;html=1;" vertex="1" parent="1">
          <mxGeometry x="10" y="420" width="80" height="40" as="geometry" />
        </mxCell>
        <mxCell id="HNwX9adKFCQNDG31WCgz-10" value="" style="endArrow=classic;html=1;exitX=0.5;exitY=1;exitDx=0;exitDy=0;entryX=0.5;entryY=0;entryDx=0;entryDy=0;" edge="1" parent="1" source="HNwX9adKFCQNDG31WCgz-3" target="HNwX9adKFCQNDG31WCgz-8">
          <mxGeometry width="50" height="50" relative="1" as="geometry">
            <mxPoint x="50" y="460" as="sourcePoint" />
            <mxPoint x="100" y="410" as="targetPoint" />
          </mxGeometry>
        </mxCell>
        <mxCell id="HNwX9adKFCQNDG31WCgz-11" value="PRINTF" style="ellipse;whiteSpace=wrap;html=1;" vertex="1" parent="1">
          <mxGeometry x="130" y="580" width="80" height="40" as="geometry" />
        </mxCell>
        <mxCell id="HNwX9adKFCQNDG31WCgz-12" value="" style="endArrow=classic;html=1;exitX=1;exitY=0.5;exitDx=0;exitDy=0;entryX=0.5;entryY=0;entryDx=0;entryDy=0;" edge="1" parent="1" source="HNwX9adKFCQNDG31WCgz-8" target="HNwX9adKFCQNDG31WCgz-11">
          <mxGeometry width="50" height="50" relative="1" as="geometry">
            <mxPoint x="90" y="490" as="sourcePoint" />
            <mxPoint x="140" y="440" as="targetPoint" />
          </mxGeometry>
        </mxCell>
        <mxCell id="HNwX9adKFCQNDG31WCgz-13" value="IF &amp;gt; 30" style="ellipse;whiteSpace=wrap;html=1;" vertex="1" parent="1">
          <mxGeometry x="-70" y="480" width="80" height="40" as="geometry" />
        </mxCell>
        <mxCell id="HNwX9adKFCQNDG31WCgz-15" value="" style="endArrow=classic;html=1;entryX=0.5;entryY=0;entryDx=0;entryDy=0;exitX=0;exitY=0.5;exitDx=0;exitDy=0;" edge="1" parent="1" source="HNwX9adKFCQNDG31WCgz-8" target="HNwX9adKFCQNDG31WCgz-13">
          <mxGeometry width="50" height="50" relative="1" as="geometry">
            <mxPoint x="-20" y="480" as="sourcePoint" />
            <mxPoint x="30" y="430" as="targetPoint" />
          </mxGeometry>
        </mxCell>
        <mxCell id="HNwX9adKFCQNDG31WCgz-16" value="PRINTF" style="ellipse;whiteSpace=wrap;html=1;" vertex="1" parent="1">
          <mxGeometry x="-120" y="545" width="80" height="40" as="geometry" />
        </mxCell>
        <mxCell id="HNwX9adKFCQNDG31WCgz-17" value="" style="endArrow=classic;html=1;exitX=0;exitY=0.5;exitDx=0;exitDy=0;entryX=0.5;entryY=0;entryDx=0;entryDy=0;" edge="1" parent="1" source="HNwX9adKFCQNDG31WCgz-13" target="HNwX9adKFCQNDG31WCgz-16">
          <mxGeometry width="50" height="50" relative="1" as="geometry">
            <mxPoint x="-120" y="540" as="sourcePoint" />
            <mxPoint x="-70" y="540" as="targetPoint" />
          </mxGeometry>
        </mxCell>
        <mxCell id="HNwX9adKFCQNDG31WCgz-18" value="PRINTF" style="ellipse;whiteSpace=wrap;html=1;" vertex="1" parent="1">
          <mxGeometry x="-10" y="545" width="80" height="40" as="geometry" />
        </mxCell>
        <mxCell id="HNwX9adKFCQNDG31WCgz-19" value="" style="endArrow=classic;html=1;exitX=1;exitY=0.5;exitDx=0;exitDy=0;entryX=0.5;entryY=0;entryDx=0;entryDy=0;" edge="1" parent="1" source="HNwX9adKFCQNDG31WCgz-13" target="HNwX9adKFCQNDG31WCgz-18">
          <mxGeometry width="50" height="50" relative="1" as="geometry">
            <mxPoint x="-60" y="640" as="sourcePoint" />
            <mxPoint x="-10" y="590" as="targetPoint" />
          </mxGeometry>
        </mxCell>
        <mxCell id="HNwX9adKFCQNDG31WCgz-20" value="END-IF" style="ellipse;whiteSpace=wrap;html=1;" vertex="1" parent="1">
          <mxGeometry x="10" y="710" width="80" height="40" as="geometry" />
        </mxCell>
        <mxCell id="HNwX9adKFCQNDG31WCgz-21" value="" style="endArrow=classic;html=1;exitX=0.5;exitY=1;exitDx=0;exitDy=0;" edge="1" parent="1" source="HNwX9adKFCQNDG31WCgz-11">
          <mxGeometry width="50" height="50" relative="1" as="geometry">
            <mxPoint x="170" y="470" as="sourcePoint" />
            <mxPoint x="50" y="710" as="targetPoint" />
          </mxGeometry>
        </mxCell>
        <mxCell id="HNwX9adKFCQNDG31WCgz-22" value="END-IF" style="ellipse;whiteSpace=wrap;html=1;" vertex="1" parent="1">
          <mxGeometry x="-70" y="630" width="80" height="40" as="geometry" />
        </mxCell>
        <mxCell id="HNwX9adKFCQNDG31WCgz-23" value="" style="endArrow=classic;html=1;exitX=0.5;exitY=1;exitDx=0;exitDy=0;entryX=1;entryY=0;entryDx=0;entryDy=0;" edge="1" parent="1" source="HNwX9adKFCQNDG31WCgz-18" target="HNwX9adKFCQNDG31WCgz-22">
          <mxGeometry width="50" height="50" relative="1" as="geometry">
            <mxPoint x="40" y="680" as="sourcePoint" />
            <mxPoint x="90" y="630" as="targetPoint" />
          </mxGeometry>
        </mxCell>
        <mxCell id="HNwX9adKFCQNDG31WCgz-24" value="" style="endArrow=classic;html=1;exitX=0.5;exitY=1;exitDx=0;exitDy=0;entryX=0;entryY=0;entryDx=0;entryDy=0;" edge="1" parent="1" source="HNwX9adKFCQNDG31WCgz-16" target="HNwX9adKFCQNDG31WCgz-22">
          <mxGeometry width="50" height="50" relative="1" as="geometry">
            <mxPoint x="-70" y="730" as="sourcePoint" />
            <mxPoint x="-20" y="680" as="targetPoint" />
          </mxGeometry>
        </mxCell>
        <mxCell id="HNwX9adKFCQNDG31WCgz-25" value="RETURN" style="ellipse;whiteSpace=wrap;html=1;" vertex="1" parent="1">
          <mxGeometry x="10" y="780" width="80" height="40" as="geometry" />
        </mxCell>
        <mxCell id="HNwX9adKFCQNDG31WCgz-26" value="" style="endArrow=classic;html=1;exitX=0.5;exitY=1;exitDx=0;exitDy=0;entryX=0.5;entryY=0;entryDx=0;entryDy=0;" edge="1" parent="1" source="HNwX9adKFCQNDG31WCgz-20" target="HNwX9adKFCQNDG31WCgz-25">
          <mxGeometry width="50" height="50" relative="1" as="geometry">
            <mxPoint x="150" y="670" as="sourcePoint" />
            <mxPoint x="200" y="620" as="targetPoint" />
          </mxGeometry>
        </mxCell>
        <mxCell id="HNwX9adKFCQNDG31WCgz-27" value="" style="endArrow=classic;html=1;exitX=0.5;exitY=1;exitDx=0;exitDy=0;entryX=0.413;entryY=0.025;entryDx=0;entryDy=0;entryPerimeter=0;" edge="1" parent="1" source="HNwX9adKFCQNDG31WCgz-22" target="HNwX9adKFCQNDG31WCgz-20">
          <mxGeometry width="50" height="50" relative="1" as="geometry">
            <mxPoint x="-150" y="740" as="sourcePoint" />
            <mxPoint x="50" y="708" as="targetPoint" />
          </mxGeometry>
        </mxCell>
        <mxCell id="HNwX9adKFCQNDG31WCgz-28" value="END" style="ellipse;whiteSpace=wrap;html=1;" vertex="1" parent="1">
          <mxGeometry x="10" y="840" width="80" height="40" as="geometry" />
        </mxCell>
        <mxCell id="HNwX9adKFCQNDG31WCgz-29" value="" style="endArrow=classic;html=1;exitX=0.5;exitY=1;exitDx=0;exitDy=0;" edge="1" parent="1" source="HNwX9adKFCQNDG31WCgz-25" target="HNwX9adKFCQNDG31WCgz-28">
          <mxGeometry width="50" height="50" relative="1" as="geometry">
            <mxPoint x="-100" y="810" as="sourcePoint" />
            <mxPoint x="-50" y="760" as="targetPoint" />
          </mxGeometry>
        </mxCell>
        <mxCell id="HNwX9adKFCQNDG31WCgz-30" value="NO" style="text;html=1;strokeColor=none;fillColor=none;align=center;verticalAlign=middle;whiteSpace=wrap;rounded=0;fontStyle=1" vertex="1" parent="1">
          <mxGeometry x="-110" y="510" width="40" height="20" as="geometry" />
        </mxCell>
        <mxCell id="HNwX9adKFCQNDG31WCgz-31" value="SI" style="text;html=1;strokeColor=none;fillColor=none;align=center;verticalAlign=middle;whiteSpace=wrap;rounded=0;fontStyle=1" vertex="1" parent="1">
          <mxGeometry x="10" y="510" width="40" height="20" as="geometry" />
        </mxCell>
        <mxCell id="HNwX9adKFCQNDG31WCgz-32" value="SI" style="text;html=1;strokeColor=none;fillColor=none;align=center;verticalAlign=middle;whiteSpace=wrap;rounded=0;fontStyle=1" vertex="1" parent="1">
          <mxGeometry x="100" y="450" width="40" height="20" as="geometry" />
        </mxCell>
        <mxCell id="HNwX9adKFCQNDG31WCgz-35" value="1" style="text;html=1;strokeColor=none;fillColor=none;align=center;verticalAlign=middle;whiteSpace=wrap;rounded=0;fontColor=#FF3333;" vertex="1" parent="1">
          <mxGeometry x="80" y="250" width="20" height="20" as="geometry" />
        </mxCell>
        <mxCell id="HNwX9adKFCQNDG31WCgz-37" value="2" style="text;html=1;strokeColor=none;fillColor=none;align=center;verticalAlign=middle;whiteSpace=wrap;rounded=0;fontColor=#FF3333;" vertex="1" parent="1">
          <mxGeometry x="80" y="310" width="20" height="20" as="geometry" />
        </mxCell>
        <mxCell id="HNwX9adKFCQNDG31WCgz-38" value="3" style="text;html=1;strokeColor=none;fillColor=none;align=center;verticalAlign=middle;whiteSpace=wrap;rounded=0;fontColor=#FF3333;" vertex="1" parent="1">
          <mxGeometry x="80" y="370" width="20" height="20" as="geometry" />
        </mxCell>
        <mxCell id="HNwX9adKFCQNDG31WCgz-39" value="4" style="text;html=1;strokeColor=none;fillColor=none;align=center;verticalAlign=middle;whiteSpace=wrap;rounded=0;fontColor=#FF3333;" vertex="1" parent="1">
          <mxGeometry x="90" y="420" width="20" height="20" as="geometry" />
        </mxCell>
        <mxCell id="HNwX9adKFCQNDG31WCgz-40" value="5" style="text;html=1;strokeColor=none;fillColor=none;align=center;verticalAlign=middle;whiteSpace=wrap;rounded=0;fontColor=#FF3333;" vertex="1" parent="1">
          <mxGeometry x="210" y="590" width="20" height="20" as="geometry" />
        </mxCell>
        <mxCell id="HNwX9adKFCQNDG31WCgz-41" value="6" style="text;html=1;strokeColor=none;fillColor=none;align=center;verticalAlign=middle;whiteSpace=wrap;rounded=0;fontColor=#FF3333;" vertex="1" parent="1">
          <mxGeometry x="80" y="760" width="20" height="20" as="geometry" />
        </mxCell>
        <mxCell id="HNwX9adKFCQNDG31WCgz-42" value="7" style="text;html=1;strokeColor=none;fillColor=none;align=center;verticalAlign=middle;whiteSpace=wrap;rounded=0;fontColor=#FF3333;" vertex="1" parent="1">
          <mxGeometry x="80" y="820" width="20" height="20" as="geometry" />
        </mxCell>
        <mxCell id="HNwX9adKFCQNDG31WCgz-43" value="8" style="text;html=1;strokeColor=none;fillColor=none;align=center;verticalAlign=middle;whiteSpace=wrap;rounded=0;fontColor=#FF3333;" vertex="1" parent="1">
          <mxGeometry x="80" y="880" width="20" height="20" as="geometry" />
        </mxCell>
        <mxCell id="HNwX9adKFCQNDG31WCgz-44" value="9" style="text;html=1;strokeColor=none;fillColor=none;align=center;verticalAlign=middle;whiteSpace=wrap;rounded=0;fontColor=#FF3333;" vertex="1" parent="1">
          <mxGeometry x="-80" y="470" width="20" height="20" as="geometry" />
        </mxCell>
        <mxCell id="HNwX9adKFCQNDG31WCgz-45" value="10" style="text;html=1;strokeColor=none;fillColor=none;align=center;verticalAlign=middle;whiteSpace=wrap;rounded=0;fontColor=#FF3333;" vertex="1" parent="1">
          <mxGeometry x="-140" y="555" width="20" height="20" as="geometry" />
        </mxCell>
        <mxCell id="HNwX9adKFCQNDG31WCgz-46" value="11" style="text;html=1;strokeColor=none;fillColor=none;align=center;verticalAlign=middle;whiteSpace=wrap;rounded=0;fontColor=#FF3333;" vertex="1" parent="1">
          <mxGeometry x="-90" y="640" width="20" height="20" as="geometry" />
        </mxCell>
        <mxCell id="HNwX9adKFCQNDG31WCgz-47" value="12" style="text;html=1;strokeColor=none;fillColor=none;align=center;verticalAlign=middle;whiteSpace=wrap;rounded=0;fontColor=#FF3333;" vertex="1" parent="1">
          <mxGeometry x="70" y="555" width="20" height="20" as="geometry" />
        </mxCell>
        <mxCell id="HNwX9adKFCQNDG31WCgz-61" value="&lt;div&gt;R-CS = 3&lt;/div&gt;&lt;div&gt;R-CD = 3&lt;/div&gt;&lt;div&gt;R-CC = 3&lt;/div&gt;" style="text;html=1;align=left;verticalAlign=middle;resizable=0;points=[];autosize=1;strokeColor=#FF0000;fontColor=#FF3333;fontStyle=1" vertex="1" parent="1">
          <mxGeometry x="120" y="240" width="70" height="50" as="geometry" />
        </mxCell>
        <mxCell id="HNwX9adKFCQNDG31WCgz-69" value="" style="endArrow=none;html=1;fontColor=none;strokeColor=#000000;" edge="1" parent="1">
          <mxGeometry width="50" height="50" relative="1" as="geometry">
            <mxPoint x="220" y="280" as="sourcePoint" />
            <mxPoint x="250" y="280" as="targetPoint" />
          </mxGeometry>
        </mxCell>
        <mxCell id="HNwX9adKFCQNDG31WCgz-72" value="" style="endArrow=none;html=1;fontColor=none;strokeColor=#000000;" edge="1" parent="1">
          <mxGeometry width="50" height="50" relative="1" as="geometry">
            <mxPoint x="220" y="310" as="sourcePoint" />
            <mxPoint x="250" y="310" as="targetPoint" />
          </mxGeometry>
        </mxCell>
        <mxCell id="HNwX9adKFCQNDG31WCgz-74" value="" style="endArrow=none;html=1;fontColor=none;strokeColor=#000000;" edge="1" parent="1">
          <mxGeometry width="50" height="50" relative="1" as="geometry">
            <mxPoint x="220" y="250" as="sourcePoint" />
            <mxPoint x="250" y="250" as="targetPoint" />
          </mxGeometry>
        </mxCell>
        <mxCell id="HNwX9adKFCQNDG31WCgz-76" value="C = # Regiones&lt;br&gt;C = 3&lt;br&gt;C = (aristas - nodos) + 2&lt;br&gt;C = (13 - 12) + 2 = 3&lt;br&gt;C = nodo predicado + 1&lt;br&gt;C = 2 + 1 = 3" style="text;html=1;strokeColor=none;fillColor=none;align=left;verticalAlign=middle;whiteSpace=wrap;rounded=0;labelBackgroundColor=none;fontColor=none;" vertex="1" parent="1">
          <mxGeometry x="200" y="320" width="150" height="110" as="geometry" />
        </mxCell>
        <mxCell id="HNwX9adKFCQNDG31WCgz-77" value="Camino 1 : 1-2-3-4-5-6-7-8&lt;br&gt;Camino 2: 1-2-3-4-9-10-11-6-7-8&lt;br&gt;Camino 3: 1-2-3-4-9-12-11-6-7-8" style="text;html=1;strokeColor=none;fillColor=none;align=left;verticalAlign=middle;whiteSpace=wrap;rounded=0;labelBackgroundColor=none;fontStyle=1;fontColor=#0066CC;" vertex="1" parent="1">
          <mxGeometry x="200" y="430" width="200" height="50" as="geometry" />
        </mxCell>
        <mxCell id="HNwX9adKFCQNDG31WCgz-78" value="CS = 12 * 100 = 100&lt;br&gt;&amp;nbsp; &amp;nbsp; &amp;nbsp; &amp;nbsp; &amp;nbsp;12&lt;br&gt;CD = 13 * 100 = 100&lt;br&gt;&amp;nbsp; &amp;nbsp; &amp;nbsp; &amp;nbsp; &amp;nbsp;13&lt;br&gt;CC = 3 * 100&amp;nbsp; 100&lt;br&gt;&amp;nbsp; &amp;nbsp; &amp;nbsp; &amp;nbsp; &amp;nbsp;3" style="text;html=1;strokeColor=none;fillColor=none;align=left;verticalAlign=middle;whiteSpace=wrap;rounded=0;labelBackgroundColor=none;" vertex="1" parent="1">
          <mxGeometry x="200" y="240" width="150" height="80" as="geometry" />
        </mxCell>
      </root>
    </mxGraphModel>
  </diagram>
  <diagram id="bxv_WFpYu4CYSiwnFDkz" name="Ejercicio-2">
    <mxGraphModel dx="1731" dy="477" grid="1" gridSize="10" guides="1" tooltips="1" connect="1" arrows="1" fold="1" page="1" pageScale="1" pageWidth="827" pageHeight="1169" math="0" shadow="0">
      <root>
        <mxCell id="4Vv2Dp5I8CJdmVv99aov-0" />
        <mxCell id="4Vv2Dp5I8CJdmVv99aov-1" parent="4Vv2Dp5I8CJdmVv99aov-0" />
        <mxCell id="JdZ21JoIQtCuQZd8QFxV-8" style="edgeStyle=orthogonalEdgeStyle;rounded=0;orthogonalLoop=1;jettySize=auto;html=1;exitX=0.5;exitY=1;exitDx=0;exitDy=0;entryX=0.5;entryY=0;entryDx=0;entryDy=0;fontColor=#000000;strokeColor=#000000;" edge="1" parent="4Vv2Dp5I8CJdmVv99aov-1" source="JdZ21JoIQtCuQZd8QFxV-0" target="JdZ21JoIQtCuQZd8QFxV-1">
          <mxGeometry relative="1" as="geometry" />
        </mxCell>
        <mxCell id="JdZ21JoIQtCuQZd8QFxV-0" value="INT" style="ellipse;whiteSpace=wrap;html=1;" vertex="1" parent="4Vv2Dp5I8CJdmVv99aov-1">
          <mxGeometry x="20" y="240" width="60" height="40" as="geometry" />
        </mxCell>
        <mxCell id="JdZ21JoIQtCuQZd8QFxV-9" style="edgeStyle=orthogonalEdgeStyle;rounded=0;orthogonalLoop=1;jettySize=auto;html=1;exitX=0.5;exitY=1;exitDx=0;exitDy=0;entryX=0.5;entryY=0;entryDx=0;entryDy=0;fontColor=#000000;strokeColor=#000000;" edge="1" parent="4Vv2Dp5I8CJdmVv99aov-1" source="JdZ21JoIQtCuQZd8QFxV-1" target="JdZ21JoIQtCuQZd8QFxV-2">
          <mxGeometry relative="1" as="geometry" />
        </mxCell>
        <mxCell id="JdZ21JoIQtCuQZd8QFxV-1" value="PRINTF" style="ellipse;whiteSpace=wrap;html=1;" vertex="1" parent="4Vv2Dp5I8CJdmVv99aov-1">
          <mxGeometry x="20" y="310" width="60" height="40" as="geometry" />
        </mxCell>
        <mxCell id="JdZ21JoIQtCuQZd8QFxV-10" style="edgeStyle=orthogonalEdgeStyle;rounded=0;orthogonalLoop=1;jettySize=auto;html=1;exitX=0.5;exitY=1;exitDx=0;exitDy=0;entryX=0.5;entryY=0;entryDx=0;entryDy=0;fontColor=#000000;strokeColor=#000000;" edge="1" parent="4Vv2Dp5I8CJdmVv99aov-1" source="JdZ21JoIQtCuQZd8QFxV-2" target="JdZ21JoIQtCuQZd8QFxV-3">
          <mxGeometry relative="1" as="geometry" />
        </mxCell>
        <mxCell id="JdZ21JoIQtCuQZd8QFxV-2" value="SCANF" style="ellipse;whiteSpace=wrap;html=1;" vertex="1" parent="4Vv2Dp5I8CJdmVv99aov-1">
          <mxGeometry x="20" y="380" width="60" height="40" as="geometry" />
        </mxCell>
        <mxCell id="JdZ21JoIQtCuQZd8QFxV-11" style="edgeStyle=orthogonalEdgeStyle;rounded=0;orthogonalLoop=1;jettySize=auto;html=1;exitX=0.5;exitY=1;exitDx=0;exitDy=0;entryX=0.5;entryY=0;entryDx=0;entryDy=0;fontColor=#000000;strokeColor=#000000;" edge="1" parent="4Vv2Dp5I8CJdmVv99aov-1" source="JdZ21JoIQtCuQZd8QFxV-3" target="JdZ21JoIQtCuQZd8QFxV-4">
          <mxGeometry relative="1" as="geometry" />
        </mxCell>
        <mxCell id="JdZ21JoIQtCuQZd8QFxV-13" style="edgeStyle=orthogonalEdgeStyle;rounded=0;orthogonalLoop=1;jettySize=auto;html=1;exitX=1;exitY=0.5;exitDx=0;exitDy=0;fontColor=#000000;strokeColor=#000000;" edge="1" parent="4Vv2Dp5I8CJdmVv99aov-1" source="JdZ21JoIQtCuQZd8QFxV-3" target="JdZ21JoIQtCuQZd8QFxV-12">
          <mxGeometry relative="1" as="geometry" />
        </mxCell>
        <mxCell id="JdZ21JoIQtCuQZd8QFxV-3" value="FOR I &amp;lt;= N" style="ellipse;whiteSpace=wrap;html=1;" vertex="1" parent="4Vv2Dp5I8CJdmVv99aov-1">
          <mxGeometry x="10" y="460" width="80" height="40" as="geometry" />
        </mxCell>
        <mxCell id="mVNuIEfV_pQPSTMuKiXn-2" style="edgeStyle=orthogonalEdgeStyle;rounded=0;orthogonalLoop=1;jettySize=auto;html=1;exitX=0.5;exitY=1;exitDx=0;exitDy=0;entryX=0.5;entryY=0;entryDx=0;entryDy=0;fontColor=#000000;strokeColor=#000000;" edge="1" parent="4Vv2Dp5I8CJdmVv99aov-1" source="JdZ21JoIQtCuQZd8QFxV-4" target="JdZ21JoIQtCuQZd8QFxV-6">
          <mxGeometry relative="1" as="geometry" />
        </mxCell>
        <mxCell id="JdZ21JoIQtCuQZd8QFxV-4" value="IF N%I == 0" style="ellipse;whiteSpace=wrap;html=1;" vertex="1" parent="4Vv2Dp5I8CJdmVv99aov-1">
          <mxGeometry x="10" y="540" width="80" height="40" as="geometry" />
        </mxCell>
        <mxCell id="JdZ21JoIQtCuQZd8QFxV-5" value="C = C + 1" style="ellipse;whiteSpace=wrap;html=1;" vertex="1" parent="4Vv2Dp5I8CJdmVv99aov-1">
          <mxGeometry x="80" y="610" width="80" height="40" as="geometry" />
        </mxCell>
        <mxCell id="XB8co7pJBpBzGc3bSq0u-1" style="edgeStyle=orthogonalEdgeStyle;rounded=0;orthogonalLoop=1;jettySize=auto;html=1;exitX=0;exitY=0.5;exitDx=0;exitDy=0;entryX=0.5;entryY=1;entryDx=0;entryDy=0;fontColor=#000000;strokeColor=#000000;" edge="1" parent="4Vv2Dp5I8CJdmVv99aov-1" source="JdZ21JoIQtCuQZd8QFxV-6" target="q12bQquVJSGE_-XnnxOO-0">
          <mxGeometry relative="1" as="geometry" />
        </mxCell>
        <mxCell id="JdZ21JoIQtCuQZd8QFxV-6" value="END-IF" style="ellipse;whiteSpace=wrap;html=1;" vertex="1" parent="4Vv2Dp5I8CJdmVv99aov-1">
          <mxGeometry x="10" y="690" width="80" height="40" as="geometry" />
        </mxCell>
        <mxCell id="XB8co7pJBpBzGc3bSq0u-0" style="edgeStyle=orthogonalEdgeStyle;rounded=0;orthogonalLoop=1;jettySize=auto;html=1;exitX=0.5;exitY=1;exitDx=0;exitDy=0;entryX=0.5;entryY=0;entryDx=0;entryDy=0;fontColor=#000000;strokeColor=#000000;" edge="1" parent="4Vv2Dp5I8CJdmVv99aov-1" source="JdZ21JoIQtCuQZd8QFxV-12" target="1QikO6z-RPDVwWrhSncy-0">
          <mxGeometry relative="1" as="geometry" />
        </mxCell>
        <mxCell id="JdZ21JoIQtCuQZd8QFxV-12" value="END-FOR" style="ellipse;whiteSpace=wrap;html=1;" vertex="1" parent="4Vv2Dp5I8CJdmVv99aov-1">
          <mxGeometry x="210" y="540" width="80" height="40" as="geometry" />
        </mxCell>
        <mxCell id="XnjQmQAOp3m-JAav5vZ3-0" style="edgeStyle=orthogonalEdgeStyle;rounded=0;orthogonalLoop=1;jettySize=auto;html=1;exitX=1;exitY=0.5;exitDx=0;exitDy=0;entryX=0.5;entryY=0;entryDx=0;entryDy=0;fontColor=#000000;strokeColor=#000000;" edge="1" parent="4Vv2Dp5I8CJdmVv99aov-1" source="1QikO6z-RPDVwWrhSncy-0">
          <mxGeometry relative="1" as="geometry">
            <mxPoint x="330" y="820" as="targetPoint" />
          </mxGeometry>
        </mxCell>
        <mxCell id="mVNuIEfV_pQPSTMuKiXn-18" style="edgeStyle=orthogonalEdgeStyle;rounded=0;orthogonalLoop=1;jettySize=auto;html=1;exitX=0.5;exitY=1;exitDx=0;exitDy=0;entryX=0.5;entryY=0;entryDx=0;entryDy=0;fontColor=#000000;strokeColor=#000000;" edge="1" parent="4Vv2Dp5I8CJdmVv99aov-1" source="1QikO6z-RPDVwWrhSncy-0" target="bKVjsXAEpEZpVbsgTGAg-0">
          <mxGeometry relative="1" as="geometry" />
        </mxCell>
        <mxCell id="1QikO6z-RPDVwWrhSncy-0" value="IF C &amp;lt;= 2" style="ellipse;whiteSpace=wrap;html=1;" vertex="1" parent="4Vv2Dp5I8CJdmVv99aov-1">
          <mxGeometry x="210" y="760" width="80" height="40" as="geometry" />
        </mxCell>
        <mxCell id="1QikO6z-RPDVwWrhSncy-1" value="PRINTF" style="ellipse;whiteSpace=wrap;html=1;" vertex="1" parent="4Vv2Dp5I8CJdmVv99aov-1">
          <mxGeometry x="290" y="820" width="80" height="40" as="geometry" />
        </mxCell>
        <mxCell id="IoGf5phvvgxOkgXOhky8-0" style="edgeStyle=orthogonalEdgeStyle;rounded=0;orthogonalLoop=1;jettySize=auto;html=1;exitX=0.5;exitY=1;exitDx=0;exitDy=0;entryX=0.5;entryY=0;entryDx=0;entryDy=0;fontColor=#000000;strokeColor=#000000;" edge="1" parent="4Vv2Dp5I8CJdmVv99aov-1" source="bKVjsXAEpEZpVbsgTGAg-0" target="bKVjsXAEpEZpVbsgTGAg-2">
          <mxGeometry relative="1" as="geometry" />
        </mxCell>
        <mxCell id="bKVjsXAEpEZpVbsgTGAg-0" value="END-IF" style="ellipse;whiteSpace=wrap;html=1;" vertex="1" parent="4Vv2Dp5I8CJdmVv99aov-1">
          <mxGeometry x="210" y="880" width="80" height="40" as="geometry" />
        </mxCell>
        <mxCell id="bKVjsXAEpEZpVbsgTGAg-1" value="" style="endArrow=classic;html=1;fontColor=#000000;strokeColor=#000000;entryX=1;entryY=0;entryDx=0;entryDy=0;exitX=0.5;exitY=1;exitDx=0;exitDy=0;" edge="1" parent="4Vv2Dp5I8CJdmVv99aov-1" target="bKVjsXAEpEZpVbsgTGAg-0">
          <mxGeometry width="50" height="50" relative="1" as="geometry">
            <mxPoint x="330" y="860" as="sourcePoint" />
            <mxPoint x="400" y="880" as="targetPoint" />
          </mxGeometry>
        </mxCell>
        <mxCell id="bKVjsXAEpEZpVbsgTGAg-4" style="edgeStyle=orthogonalEdgeStyle;rounded=0;orthogonalLoop=1;jettySize=auto;html=1;exitX=1;exitY=0.5;exitDx=0;exitDy=0;fontColor=#000000;strokeColor=#000000;" edge="1" parent="4Vv2Dp5I8CJdmVv99aov-1" source="bKVjsXAEpEZpVbsgTGAg-2">
          <mxGeometry relative="1" as="geometry">
            <mxPoint x="330" y="1010" as="targetPoint" />
          </mxGeometry>
        </mxCell>
        <mxCell id="mVNuIEfV_pQPSTMuKiXn-19" style="edgeStyle=orthogonalEdgeStyle;rounded=0;orthogonalLoop=1;jettySize=auto;html=1;exitX=0.5;exitY=1;exitDx=0;exitDy=0;entryX=0.5;entryY=0;entryDx=0;entryDy=0;fontColor=#000000;strokeColor=#000000;" edge="1" parent="4Vv2Dp5I8CJdmVv99aov-1" source="bKVjsXAEpEZpVbsgTGAg-2" target="bKVjsXAEpEZpVbsgTGAg-5">
          <mxGeometry relative="1" as="geometry" />
        </mxCell>
        <mxCell id="bKVjsXAEpEZpVbsgTGAg-2" value="IF C &amp;gt;= 2" style="ellipse;whiteSpace=wrap;html=1;" vertex="1" parent="4Vv2Dp5I8CJdmVv99aov-1">
          <mxGeometry x="210" y="950" width="80" height="40" as="geometry" />
        </mxCell>
        <mxCell id="bKVjsXAEpEZpVbsgTGAg-3" value="PRINTF" style="ellipse;whiteSpace=wrap;html=1;" vertex="1" parent="4Vv2Dp5I8CJdmVv99aov-1">
          <mxGeometry x="300" y="1010" width="80" height="40" as="geometry" />
        </mxCell>
        <mxCell id="q12bQquVJSGE_-XnnxOO-4" style="edgeStyle=orthogonalEdgeStyle;rounded=0;orthogonalLoop=1;jettySize=auto;html=1;exitX=0.5;exitY=1;exitDx=0;exitDy=0;entryX=0.5;entryY=0;entryDx=0;entryDy=0;fontColor=#000000;strokeColor=#000000;" edge="1" parent="4Vv2Dp5I8CJdmVv99aov-1" source="bKVjsXAEpEZpVbsgTGAg-5" target="bKVjsXAEpEZpVbsgTGAg-7">
          <mxGeometry relative="1" as="geometry" />
        </mxCell>
        <mxCell id="bKVjsXAEpEZpVbsgTGAg-5" value="END-IF" style="ellipse;whiteSpace=wrap;html=1;" vertex="1" parent="4Vv2Dp5I8CJdmVv99aov-1">
          <mxGeometry x="210" y="1070" width="80" height="40" as="geometry" />
        </mxCell>
        <mxCell id="bKVjsXAEpEZpVbsgTGAg-6" value="" style="endArrow=classic;html=1;fontColor=#000000;strokeColor=#000000;entryX=1;entryY=0.5;entryDx=0;entryDy=0;exitX=0.5;exitY=1;exitDx=0;exitDy=0;" edge="1" parent="4Vv2Dp5I8CJdmVv99aov-1" target="bKVjsXAEpEZpVbsgTGAg-5">
          <mxGeometry width="50" height="50" relative="1" as="geometry">
            <mxPoint x="330" y="1050" as="sourcePoint" />
            <mxPoint x="290.00427124746193" y="1105.857864376269" as="targetPoint" />
          </mxGeometry>
        </mxCell>
        <mxCell id="bKVjsXAEpEZpVbsgTGAg-7" value="END" style="ellipse;whiteSpace=wrap;html=1;" vertex="1" parent="4Vv2Dp5I8CJdmVv99aov-1">
          <mxGeometry x="210" y="1139" width="80" height="40" as="geometry" />
        </mxCell>
        <mxCell id="bKVjsXAEpEZpVbsgTGAg-9" value="" style="endArrow=classic;html=1;fontColor=#000000;strokeColor=#000000;exitX=1;exitY=0.5;exitDx=0;exitDy=0;entryX=0.5;entryY=0;entryDx=0;entryDy=0;" edge="1" parent="4Vv2Dp5I8CJdmVv99aov-1" source="JdZ21JoIQtCuQZd8QFxV-4" target="JdZ21JoIQtCuQZd8QFxV-5">
          <mxGeometry width="50" height="50" relative="1" as="geometry">
            <mxPoint x="70" y="670" as="sourcePoint" />
            <mxPoint x="110" y="600" as="targetPoint" />
          </mxGeometry>
        </mxCell>
        <mxCell id="dH5ppIzPOKF89ZbIhxkT-0" value="" style="endArrow=classic;html=1;fontColor=#000000;strokeColor=#000000;exitX=0.5;exitY=1;exitDx=0;exitDy=0;entryX=0.5;entryY=0;entryDx=0;entryDy=0;" edge="1" parent="4Vv2Dp5I8CJdmVv99aov-1" source="JdZ21JoIQtCuQZd8QFxV-5" target="JdZ21JoIQtCuQZd8QFxV-6">
          <mxGeometry width="50" height="50" relative="1" as="geometry">
            <mxPoint x="50" y="670" as="sourcePoint" />
            <mxPoint x="100" y="620" as="targetPoint" />
          </mxGeometry>
        </mxCell>
        <mxCell id="q12bQquVJSGE_-XnnxOO-2" style="edgeStyle=orthogonalEdgeStyle;rounded=0;orthogonalLoop=1;jettySize=auto;html=1;exitX=0.5;exitY=0;exitDx=0;exitDy=0;entryX=0;entryY=0.5;entryDx=0;entryDy=0;fontColor=#000000;strokeColor=#000000;" edge="1" parent="4Vv2Dp5I8CJdmVv99aov-1" source="q12bQquVJSGE_-XnnxOO-0" target="JdZ21JoIQtCuQZd8QFxV-3">
          <mxGeometry relative="1" as="geometry" />
        </mxCell>
        <mxCell id="q12bQquVJSGE_-XnnxOO-0" value="I = I + 1" style="ellipse;whiteSpace=wrap;html=1;" vertex="1" parent="4Vv2Dp5I8CJdmVv99aov-1">
          <mxGeometry x="-70" y="610" width="80" height="40" as="geometry" />
        </mxCell>
        <mxCell id="V1kYNRRwppU56J-Am5lT-0" value="&lt;div&gt;R-CS = 1&amp;nbsp;&lt;/div&gt;&lt;div&gt;R-CD = 2&lt;/div&gt;&lt;div&gt;R-CC = 12&lt;/div&gt;" style="text;html=1;align=left;verticalAlign=middle;resizable=0;points=[];autosize=1;strokeColor=#FF0000;fontColor=#FF3333;fontStyle=1" vertex="1" parent="4Vv2Dp5I8CJdmVv99aov-1">
          <mxGeometry x="100" y="240" width="70" height="50" as="geometry" />
        </mxCell>
        <mxCell id="oHmZ71vdAG1Yi5nQgUEl-0" value="1" style="text;html=1;strokeColor=none;fillColor=none;align=center;verticalAlign=middle;whiteSpace=wrap;rounded=0;fontColor=#FF3333;" vertex="1" parent="4Vv2Dp5I8CJdmVv99aov-1">
          <mxGeometry x="80" y="250" width="20" height="20" as="geometry" />
        </mxCell>
        <mxCell id="oHmZ71vdAG1Yi5nQgUEl-1" value="2" style="text;html=1;strokeColor=none;fillColor=none;align=center;verticalAlign=middle;whiteSpace=wrap;rounded=0;fontColor=#FF3333;" vertex="1" parent="4Vv2Dp5I8CJdmVv99aov-1">
          <mxGeometry x="80" y="320" width="20" height="20" as="geometry" />
        </mxCell>
        <mxCell id="oHmZ71vdAG1Yi5nQgUEl-2" value="3" style="text;html=1;strokeColor=none;fillColor=none;align=center;verticalAlign=middle;whiteSpace=wrap;rounded=0;fontColor=#FF3333;" vertex="1" parent="4Vv2Dp5I8CJdmVv99aov-1">
          <mxGeometry x="80" y="390" width="20" height="20" as="geometry" />
        </mxCell>
        <mxCell id="oHmZ71vdAG1Yi5nQgUEl-3" value="4" style="text;html=1;strokeColor=none;fillColor=none;align=center;verticalAlign=middle;whiteSpace=wrap;rounded=0;fontColor=#FF3333;" vertex="1" parent="4Vv2Dp5I8CJdmVv99aov-1">
          <mxGeometry x="70" y="450" width="20" height="20" as="geometry" />
        </mxCell>
        <mxCell id="oHmZ71vdAG1Yi5nQgUEl-4" value="9" style="text;html=1;strokeColor=none;fillColor=none;align=center;verticalAlign=middle;whiteSpace=wrap;rounded=0;fontColor=#FF3333;" vertex="1" parent="4Vv2Dp5I8CJdmVv99aov-1">
          <mxGeometry x="290" y="550" width="20" height="20" as="geometry" />
        </mxCell>
        <mxCell id="oHmZ71vdAG1Yi5nQgUEl-5" value="5" style="text;html=1;strokeColor=none;fillColor=none;align=center;verticalAlign=middle;whiteSpace=wrap;rounded=0;fontColor=#FF3333;" vertex="1" parent="4Vv2Dp5I8CJdmVv99aov-1">
          <mxGeometry x="80" y="530" width="20" height="20" as="geometry" />
        </mxCell>
        <mxCell id="oHmZ71vdAG1Yi5nQgUEl-6" value="7" style="text;html=1;strokeColor=none;fillColor=none;align=center;verticalAlign=middle;whiteSpace=wrap;rounded=0;fontColor=#FF3333;" vertex="1" parent="4Vv2Dp5I8CJdmVv99aov-1">
          <mxGeometry x="150" y="600" width="20" height="20" as="geometry" />
        </mxCell>
        <mxCell id="oHmZ71vdAG1Yi5nQgUEl-7" value="6" style="text;html=1;strokeColor=none;fillColor=none;align=center;verticalAlign=middle;whiteSpace=wrap;rounded=0;fontColor=#FF3333;" vertex="1" parent="4Vv2Dp5I8CJdmVv99aov-1">
          <mxGeometry x="-90" y="610" width="20" height="20" as="geometry" />
        </mxCell>
        <mxCell id="oHmZ71vdAG1Yi5nQgUEl-8" value="8" style="text;html=1;strokeColor=none;fillColor=none;align=center;verticalAlign=middle;whiteSpace=wrap;rounded=0;fontColor=#FF3333;" vertex="1" parent="4Vv2Dp5I8CJdmVv99aov-1">
          <mxGeometry x="90" y="700" width="20" height="20" as="geometry" />
        </mxCell>
        <mxCell id="oHmZ71vdAG1Yi5nQgUEl-9" value="10" style="text;html=1;strokeColor=none;fillColor=none;align=center;verticalAlign=middle;whiteSpace=wrap;rounded=0;fontColor=#FF3333;" vertex="1" parent="4Vv2Dp5I8CJdmVv99aov-1">
          <mxGeometry x="280" y="750" width="20" height="20" as="geometry" />
        </mxCell>
        <mxCell id="oHmZ71vdAG1Yi5nQgUEl-10" value="11" style="text;html=1;strokeColor=none;fillColor=none;align=center;verticalAlign=middle;whiteSpace=wrap;rounded=0;fontColor=#FF3333;" vertex="1" parent="4Vv2Dp5I8CJdmVv99aov-1">
          <mxGeometry x="380" y="830" width="20" height="20" as="geometry" />
        </mxCell>
        <mxCell id="oHmZ71vdAG1Yi5nQgUEl-11" value="12" style="text;html=1;strokeColor=none;fillColor=none;align=center;verticalAlign=middle;whiteSpace=wrap;rounded=0;fontColor=#FF3333;" vertex="1" parent="4Vv2Dp5I8CJdmVv99aov-1">
          <mxGeometry x="190" y="890" width="20" height="20" as="geometry" />
        </mxCell>
        <mxCell id="oHmZ71vdAG1Yi5nQgUEl-12" value="13" style="text;html=1;strokeColor=none;fillColor=none;align=center;verticalAlign=middle;whiteSpace=wrap;rounded=0;fontColor=#FF3333;" vertex="1" parent="4Vv2Dp5I8CJdmVv99aov-1">
          <mxGeometry x="190" y="960" width="20" height="20" as="geometry" />
        </mxCell>
        <mxCell id="oHmZ71vdAG1Yi5nQgUEl-13" value="14" style="text;html=1;strokeColor=none;fillColor=none;align=center;verticalAlign=middle;whiteSpace=wrap;rounded=0;fontColor=#FF3333;" vertex="1" parent="4Vv2Dp5I8CJdmVv99aov-1">
          <mxGeometry x="380" y="1020" width="20" height="20" as="geometry" />
        </mxCell>
        <mxCell id="oHmZ71vdAG1Yi5nQgUEl-14" value="15" style="text;html=1;strokeColor=none;fillColor=none;align=center;verticalAlign=middle;whiteSpace=wrap;rounded=0;fontColor=#FF3333;" vertex="1" parent="4Vv2Dp5I8CJdmVv99aov-1">
          <mxGeometry x="190" y="1080" width="20" height="20" as="geometry" />
        </mxCell>
        <mxCell id="oHmZ71vdAG1Yi5nQgUEl-15" value="16" style="text;html=1;strokeColor=none;fillColor=none;align=center;verticalAlign=middle;whiteSpace=wrap;rounded=0;fontColor=#FF3333;" vertex="1" parent="4Vv2Dp5I8CJdmVv99aov-1">
          <mxGeometry x="290" y="1149" width="20" height="20" as="geometry" />
        </mxCell>
        <mxCell id="Ib9mn7maNffAe4lDHDFo-0" value="CS = 16 * 100 = 100&lt;br&gt;&amp;nbsp; &amp;nbsp; &amp;nbsp; &amp;nbsp; &amp;nbsp;16&lt;br&gt;CD = 19 * 100 = 100&lt;br&gt;&amp;nbsp; &amp;nbsp; &amp;nbsp; &amp;nbsp; &amp;nbsp;19&lt;br&gt;CC = 8 * 100 =&amp;nbsp; 100&lt;br&gt;&amp;nbsp; &amp;nbsp; &amp;nbsp; &amp;nbsp; &amp;nbsp;8" style="text;html=1;strokeColor=none;fillColor=none;align=left;verticalAlign=middle;whiteSpace=wrap;rounded=0;labelBackgroundColor=none;" vertex="1" parent="4Vv2Dp5I8CJdmVv99aov-1">
          <mxGeometry x="180" y="240" width="150" height="80" as="geometry" />
        </mxCell>
        <mxCell id="LTyOb_Du0rrXcwQfqTRm-0" value="C = # Regiones&lt;br&gt;C = 5&lt;br&gt;C = (aristas - nodos) + 2&lt;br&gt;C = (19 - 16) + 2 = 5&lt;br&gt;C = nodo predicado + 1&lt;br&gt;C = 4 + 1 = 5" style="text;html=1;strokeColor=none;fillColor=none;align=left;verticalAlign=middle;whiteSpace=wrap;rounded=0;labelBackgroundColor=none;fontColor=none;" vertex="1" parent="4Vv2Dp5I8CJdmVv99aov-1">
          <mxGeometry x="180" y="320" width="150" height="110" as="geometry" />
        </mxCell>
        <mxCell id="hhRjnyMKw4C5JVGgj2J_-0" value="Camino 1: 1-2-3-4-5-7-8-6-4-9-10-11-12-13-14-15-16&lt;br&gt;Camino 2: 1-2-3-4-5-7-8-6-4-9-10-12-13-14-15-16&lt;br&gt;Camino 3: 1-2-3-4-5-7-8-6-4-9-10-11-12-13-15-16&lt;br&gt;Camino 4: 1-2-3-4-5-7-8-6-4-9-10-12-13-15-16&lt;br&gt;&lt;br&gt;Camino 5: 1-2-3-4-5-8-6-4-9-10-11-12-13-15-16&lt;br&gt;Camino 6: 1-2-3-4-5-8-6-4-9-10-12-13-14-15-16&lt;br&gt;Camino 7: 1-2-3-4-5-8-6-4-9-10-11-12-13-15-16&lt;br&gt;Camino 8: 1-2-3-4-5-8-6-4-9-10-12-13-15-16&lt;br&gt;&lt;br&gt;Camino 9: 1-2-3-4-9-10-11-12-13-14-15-16&lt;br&gt;Camino 10: 1-2-3-4-9-10-12-13-14-15-16&lt;br&gt;Camino 11: 1-2-3-4-9-10-11-12-13-15-16&lt;br&gt;Camino 12: 1-2-3-4-9-10-12-13-15-16" style="text;html=1;strokeColor=none;fillColor=none;align=left;verticalAlign=middle;whiteSpace=wrap;rounded=0;labelBackgroundColor=none;fontStyle=1;fontColor=#0066CC;" vertex="1" parent="4Vv2Dp5I8CJdmVv99aov-1">
          <mxGeometry x="330" y="240" width="300" height="200" as="geometry" />
        </mxCell>
        <mxCell id="6RTXo9hJUufaYgPdS--t-0" value="" style="endArrow=none;html=1;fontColor=#000000;strokeColor=#000000;" edge="1" parent="4Vv2Dp5I8CJdmVv99aov-1">
          <mxGeometry width="50" height="50" relative="1" as="geometry">
            <mxPoint x="200" y="250" as="sourcePoint" />
            <mxPoint x="230" y="250" as="targetPoint" />
          </mxGeometry>
        </mxCell>
        <mxCell id="6RTXo9hJUufaYgPdS--t-4" value="" style="endArrow=none;html=1;fontColor=#000000;strokeColor=#000000;" edge="1" parent="4Vv2Dp5I8CJdmVv99aov-1">
          <mxGeometry width="50" height="50" relative="1" as="geometry">
            <mxPoint x="200" y="280" as="sourcePoint" />
            <mxPoint x="230" y="280" as="targetPoint" />
          </mxGeometry>
        </mxCell>
        <mxCell id="6RTXo9hJUufaYgPdS--t-5" value="" style="endArrow=none;html=1;fontColor=#000000;strokeColor=#000000;" edge="1" parent="4Vv2Dp5I8CJdmVv99aov-1">
          <mxGeometry width="50" height="50" relative="1" as="geometry">
            <mxPoint x="200" y="310" as="sourcePoint" />
            <mxPoint x="230" y="310" as="targetPoint" />
          </mxGeometry>
        </mxCell>
      </root>
    </mxGraphModel>
  </diagram>
  <diagram id="-u7SfpeUvU6HAX7_U_kt" name="Ejercicio-3">
    <mxGraphModel dx="1731" dy="538" grid="1" gridSize="10" guides="1" tooltips="1" connect="1" arrows="1" fold="1" page="1" pageScale="1" pageWidth="827" pageHeight="1169" math="0" shadow="0">
      <root>
        <mxCell id="kk0g_EglJL_VjuVPhpIl-0" />
        <mxCell id="kk0g_EglJL_VjuVPhpIl-1" parent="kk0g_EglJL_VjuVPhpIl-0" />
        <mxCell id="C0OqrVGaK2a0d8-XwR3r-4" style="edgeStyle=orthogonalEdgeStyle;rounded=0;orthogonalLoop=1;jettySize=auto;html=1;exitX=0.5;exitY=1;exitDx=0;exitDy=0;entryX=0.5;entryY=0;entryDx=0;entryDy=0;fontColor=#000000;strokeColor=#000000;" edge="1" parent="kk0g_EglJL_VjuVPhpIl-1" source="C0OqrVGaK2a0d8-XwR3r-0" target="C0OqrVGaK2a0d8-XwR3r-3">
          <mxGeometry relative="1" as="geometry" />
        </mxCell>
        <mxCell id="C0OqrVGaK2a0d8-XwR3r-0" value="INT" style="ellipse;whiteSpace=wrap;html=1;" vertex="1" parent="kk0g_EglJL_VjuVPhpIl-1">
          <mxGeometry x="80" y="40" width="60" height="40" as="geometry" />
        </mxCell>
        <mxCell id="KmVBuQKQfC_GvLXWbIrV-1" style="edgeStyle=orthogonalEdgeStyle;rounded=0;orthogonalLoop=1;jettySize=auto;html=1;exitX=0.5;exitY=1;exitDx=0;exitDy=0;entryX=0.5;entryY=0;entryDx=0;entryDy=0;fontColor=#000000;strokeColor=#000000;" edge="1" parent="kk0g_EglJL_VjuVPhpIl-1" source="C0OqrVGaK2a0d8-XwR3r-1" target="C0OqrVGaK2a0d8-XwR3r-7">
          <mxGeometry relative="1" as="geometry" />
        </mxCell>
        <mxCell id="C0OqrVGaK2a0d8-XwR3r-1" value="INT" style="ellipse;whiteSpace=wrap;html=1;" vertex="1" parent="kk0g_EglJL_VjuVPhpIl-1">
          <mxGeometry x="80" y="220" width="60" height="40" as="geometry" />
        </mxCell>
        <mxCell id="C0OqrVGaK2a0d8-XwR3r-6" style="edgeStyle=orthogonalEdgeStyle;rounded=0;orthogonalLoop=1;jettySize=auto;html=1;exitX=0.5;exitY=1;exitDx=0;exitDy=0;entryX=0.5;entryY=0;entryDx=0;entryDy=0;fontColor=#000000;strokeColor=#000000;" edge="1" parent="kk0g_EglJL_VjuVPhpIl-1" source="C0OqrVGaK2a0d8-XwR3r-2" target="C0OqrVGaK2a0d8-XwR3r-1">
          <mxGeometry relative="1" as="geometry" />
        </mxCell>
        <mxCell id="C0OqrVGaK2a0d8-XwR3r-2" value="INT" style="ellipse;whiteSpace=wrap;html=1;" vertex="1" parent="kk0g_EglJL_VjuVPhpIl-1">
          <mxGeometry x="80" y="160" width="60" height="40" as="geometry" />
        </mxCell>
        <mxCell id="C0OqrVGaK2a0d8-XwR3r-5" style="edgeStyle=orthogonalEdgeStyle;rounded=0;orthogonalLoop=1;jettySize=auto;html=1;exitX=0.5;exitY=1;exitDx=0;exitDy=0;entryX=0.5;entryY=0;entryDx=0;entryDy=0;fontColor=#000000;strokeColor=#000000;" edge="1" parent="kk0g_EglJL_VjuVPhpIl-1" source="C0OqrVGaK2a0d8-XwR3r-3" target="C0OqrVGaK2a0d8-XwR3r-2">
          <mxGeometry relative="1" as="geometry" />
        </mxCell>
        <mxCell id="C0OqrVGaK2a0d8-XwR3r-3" value="INT" style="ellipse;whiteSpace=wrap;html=1;" vertex="1" parent="kk0g_EglJL_VjuVPhpIl-1">
          <mxGeometry x="80" y="100" width="60" height="40" as="geometry" />
        </mxCell>
        <mxCell id="KmVBuQKQfC_GvLXWbIrV-2" style="edgeStyle=orthogonalEdgeStyle;rounded=0;orthogonalLoop=1;jettySize=auto;html=1;exitX=0.5;exitY=1;exitDx=0;exitDy=0;entryX=0.5;entryY=0;entryDx=0;entryDy=0;fontColor=#000000;strokeColor=#000000;" edge="1" parent="kk0g_EglJL_VjuVPhpIl-1" source="C0OqrVGaK2a0d8-XwR3r-7" target="C0OqrVGaK2a0d8-XwR3r-8">
          <mxGeometry relative="1" as="geometry" />
        </mxCell>
        <mxCell id="C0OqrVGaK2a0d8-XwR3r-7" value="DO" style="ellipse;whiteSpace=wrap;html=1;" vertex="1" parent="kk0g_EglJL_VjuVPhpIl-1">
          <mxGeometry x="80" y="280" width="60" height="40" as="geometry" />
        </mxCell>
        <mxCell id="KmVBuQKQfC_GvLXWbIrV-0" style="edgeStyle=orthogonalEdgeStyle;rounded=0;orthogonalLoop=1;jettySize=auto;html=1;exitX=1;exitY=0.5;exitDx=0;exitDy=0;entryX=0.5;entryY=0;entryDx=0;entryDy=0;fontColor=#000000;strokeColor=#000000;" edge="1" parent="kk0g_EglJL_VjuVPhpIl-1" source="C0OqrVGaK2a0d8-XwR3r-8" target="8dTzZIFwc0GZRAdWBNWu-0">
          <mxGeometry relative="1" as="geometry" />
        </mxCell>
        <mxCell id="OCyzeiR3XjCje0F2MJMq-2" style="edgeStyle=orthogonalEdgeStyle;rounded=0;orthogonalLoop=1;jettySize=auto;html=1;exitX=0.5;exitY=1;exitDx=0;exitDy=0;fontColor=#000000;strokeColor=#000000;" edge="1" parent="kk0g_EglJL_VjuVPhpIl-1" source="C0OqrVGaK2a0d8-XwR3r-8" target="uRuosyaVMok5P8OYAEE2-0">
          <mxGeometry relative="1" as="geometry" />
        </mxCell>
        <mxCell id="C0OqrVGaK2a0d8-XwR3r-8" value="FOR I &amp;lt; N" style="ellipse;whiteSpace=wrap;html=1;" vertex="1" parent="kk0g_EglJL_VjuVPhpIl-1">
          <mxGeometry x="80" y="340" width="60" height="40" as="geometry" />
        </mxCell>
        <mxCell id="foUqh2Qdn0f9PHTpoj8j-1" style="edgeStyle=orthogonalEdgeStyle;rounded=0;orthogonalLoop=1;jettySize=auto;html=1;exitX=0.5;exitY=1;exitDx=0;exitDy=0;entryX=0.5;entryY=0;entryDx=0;entryDy=0;fontColor=#000000;strokeColor=#000000;" edge="1" parent="kk0g_EglJL_VjuVPhpIl-1" source="8dTzZIFwc0GZRAdWBNWu-0" target="foUqh2Qdn0f9PHTpoj8j-0">
          <mxGeometry relative="1" as="geometry" />
        </mxCell>
        <mxCell id="8dTzZIFwc0GZRAdWBNWu-0" value="END-FOR" style="ellipse;whiteSpace=wrap;html=1;" vertex="1" parent="kk0g_EglJL_VjuVPhpIl-1">
          <mxGeometry x="280" y="390" width="60" height="40" as="geometry" />
        </mxCell>
        <mxCell id="66lrAT3GXoRAamCq_qYD-0" style="edgeStyle=orthogonalEdgeStyle;rounded=0;orthogonalLoop=1;jettySize=auto;html=1;exitX=0.5;exitY=1;exitDx=0;exitDy=0;entryX=0.5;entryY=0;entryDx=0;entryDy=0;fontColor=#000000;strokeColor=#000000;" edge="1" parent="kk0g_EglJL_VjuVPhpIl-1" source="uRuosyaVMok5P8OYAEE2-0" target="OCyzeiR3XjCje0F2MJMq-0">
          <mxGeometry relative="1" as="geometry" />
        </mxCell>
        <mxCell id="uRuosyaVMok5P8OYAEE2-0" value="DESCENDIENTES" style="ellipse;whiteSpace=wrap;html=1;" vertex="1" parent="kk0g_EglJL_VjuVPhpIl-1">
          <mxGeometry x="50" y="400" width="120" height="40" as="geometry" />
        </mxCell>
        <mxCell id="OCyzeiR3XjCje0F2MJMq-1" style="edgeStyle=orthogonalEdgeStyle;rounded=0;orthogonalLoop=1;jettySize=auto;html=1;exitX=0;exitY=0.5;exitDx=0;exitDy=0;entryX=0;entryY=0.5;entryDx=0;entryDy=0;fontColor=#000000;strokeColor=#000000;" edge="1" parent="kk0g_EglJL_VjuVPhpIl-1" source="OCyzeiR3XjCje0F2MJMq-0" target="C0OqrVGaK2a0d8-XwR3r-8">
          <mxGeometry relative="1" as="geometry" />
        </mxCell>
        <mxCell id="OCyzeiR3XjCje0F2MJMq-0" value="I = I + 1" style="ellipse;whiteSpace=wrap;html=1;" vertex="1" parent="kk0g_EglJL_VjuVPhpIl-1">
          <mxGeometry x="20" y="460" width="180" height="40" as="geometry" />
        </mxCell>
        <mxCell id="4McoZB7TT1zBa3ElJaaS-3" style="edgeStyle=orthogonalEdgeStyle;rounded=0;orthogonalLoop=1;jettySize=auto;html=1;exitX=0.5;exitY=1;exitDx=0;exitDy=0;entryX=0.5;entryY=0;entryDx=0;entryDy=0;fontColor=#000000;strokeColor=#000000;" edge="1" parent="kk0g_EglJL_VjuVPhpIl-1" source="4McoZB7TT1zBa3ElJaaS-0" target="4McoZB7TT1zBa3ElJaaS-1">
          <mxGeometry relative="1" as="geometry" />
        </mxCell>
        <mxCell id="4McoZB7TT1zBa3ElJaaS-5" style="edgeStyle=orthogonalEdgeStyle;rounded=0;orthogonalLoop=1;jettySize=auto;html=1;exitX=1;exitY=0.5;exitDx=0;exitDy=0;entryX=0.5;entryY=0;entryDx=0;entryDy=0;fontColor=#000000;strokeColor=#000000;" edge="1" parent="kk0g_EglJL_VjuVPhpIl-1" source="4McoZB7TT1zBa3ElJaaS-0" target="4McoZB7TT1zBa3ElJaaS-4">
          <mxGeometry relative="1" as="geometry" />
        </mxCell>
        <mxCell id="4McoZB7TT1zBa3ElJaaS-0" value="FOR I &amp;lt; N" style="ellipse;whiteSpace=wrap;html=1;" vertex="1" parent="kk0g_EglJL_VjuVPhpIl-1">
          <mxGeometry x="280" y="530" width="60" height="40" as="geometry" />
        </mxCell>
        <mxCell id="YI-y2iF1XH5hUDAdzl6L-10" style="edgeStyle=orthogonalEdgeStyle;rounded=0;orthogonalLoop=1;jettySize=auto;html=1;exitX=0;exitY=0.5;exitDx=0;exitDy=0;entryX=0;entryY=0.5;entryDx=0;entryDy=0;fontColor=#000000;strokeColor=#000000;" edge="1" parent="kk0g_EglJL_VjuVPhpIl-1" source="JqQZ5jRwnEsrDDpMaxpV-0" target="4McoZB7TT1zBa3ElJaaS-0">
          <mxGeometry relative="1" as="geometry">
            <Array as="points">
              <mxPoint x="230" y="670" />
              <mxPoint x="230" y="550" />
            </Array>
          </mxGeometry>
        </mxCell>
        <mxCell id="JqQZ5jRwnEsrDDpMaxpV-1" style="edgeStyle=orthogonalEdgeStyle;rounded=0;orthogonalLoop=1;jettySize=auto;html=1;exitX=0.5;exitY=1;exitDx=0;exitDy=0;entryX=0.5;entryY=0;entryDx=0;entryDy=0;fontColor=#000000;strokeColor=#000000;" edge="1" parent="kk0g_EglJL_VjuVPhpIl-1" source="4McoZB7TT1zBa3ElJaaS-1" target="JqQZ5jRwnEsrDDpMaxpV-0">
          <mxGeometry relative="1" as="geometry" />
        </mxCell>
        <mxCell id="4McoZB7TT1zBa3ElJaaS-1" value="ASCENDIENTES" style="ellipse;whiteSpace=wrap;html=1;" vertex="1" parent="kk0g_EglJL_VjuVPhpIl-1">
          <mxGeometry x="250" y="585" width="120" height="40" as="geometry" />
        </mxCell>
        <mxCell id="UoznRs_CoEHGiO9MC1ZC-1" style="edgeStyle=orthogonalEdgeStyle;rounded=0;orthogonalLoop=1;jettySize=auto;html=1;exitX=0.5;exitY=1;exitDx=0;exitDy=0;entryX=0.5;entryY=0;entryDx=0;entryDy=0;fontColor=#000000;strokeColor=#000000;" edge="1" parent="kk0g_EglJL_VjuVPhpIl-1" source="4McoZB7TT1zBa3ElJaaS-4" target="6-h1gdI3nwW7X6mvaEP--2">
          <mxGeometry relative="1" as="geometry" />
        </mxCell>
        <mxCell id="YI-y2iF1XH5hUDAdzl6L-2" style="edgeStyle=orthogonalEdgeStyle;rounded=0;orthogonalLoop=1;jettySize=auto;html=1;exitX=1;exitY=0.5;exitDx=0;exitDy=0;entryX=0.5;entryY=0;entryDx=0;entryDy=0;fontColor=#000000;strokeColor=#000000;" edge="1" parent="kk0g_EglJL_VjuVPhpIl-1" source="6-h1gdI3nwW7X6mvaEP--2" target="YI-y2iF1XH5hUDAdzl6L-1">
          <mxGeometry relative="1" as="geometry" />
        </mxCell>
        <mxCell id="4McoZB7TT1zBa3ElJaaS-4" value="END-FOR" style="ellipse;whiteSpace=wrap;html=1;" vertex="1" parent="kk0g_EglJL_VjuVPhpIl-1">
          <mxGeometry x="470" y="630" width="60" height="40" as="geometry" />
        </mxCell>
        <mxCell id="UoznRs_CoEHGiO9MC1ZC-2" style="edgeStyle=orthogonalEdgeStyle;rounded=0;orthogonalLoop=1;jettySize=auto;html=1;exitX=0.5;exitY=1;exitDx=0;exitDy=0;entryX=0.5;entryY=0;entryDx=0;entryDy=0;fontColor=#000000;strokeColor=#000000;" edge="1" parent="kk0g_EglJL_VjuVPhpIl-1" source="6-h1gdI3nwW7X6mvaEP--2" target="6-h1gdI3nwW7X6mvaEP--3">
          <mxGeometry relative="1" as="geometry" />
        </mxCell>
        <mxCell id="6-h1gdI3nwW7X6mvaEP--2" value="FOR I &amp;lt; N" style="ellipse;whiteSpace=wrap;html=1;" vertex="1" parent="kk0g_EglJL_VjuVPhpIl-1">
          <mxGeometry x="470" y="690" width="60" height="40" as="geometry" />
        </mxCell>
        <mxCell id="UoznRs_CoEHGiO9MC1ZC-3" style="edgeStyle=orthogonalEdgeStyle;rounded=0;orthogonalLoop=1;jettySize=auto;html=1;exitX=0.5;exitY=1;exitDx=0;exitDy=0;entryX=0.438;entryY=0;entryDx=0;entryDy=0;entryPerimeter=0;fontColor=#000000;strokeColor=#000000;" edge="1" parent="kk0g_EglJL_VjuVPhpIl-1" source="6-h1gdI3nwW7X6mvaEP--3" target="6-h1gdI3nwW7X6mvaEP--4">
          <mxGeometry relative="1" as="geometry" />
        </mxCell>
        <mxCell id="6-h1gdI3nwW7X6mvaEP--3" value="COMPONENTE" style="ellipse;whiteSpace=wrap;html=1;" vertex="1" parent="kk0g_EglJL_VjuVPhpIl-1">
          <mxGeometry x="455" y="750" width="90" height="40" as="geometry" />
        </mxCell>
        <mxCell id="UoznRs_CoEHGiO9MC1ZC-4" style="edgeStyle=orthogonalEdgeStyle;rounded=0;orthogonalLoop=1;jettySize=auto;html=1;exitX=1;exitY=0.5;exitDx=0;exitDy=0;entryX=0.5;entryY=0;entryDx=0;entryDy=0;fontColor=#000000;strokeColor=#000000;" edge="1" parent="kk0g_EglJL_VjuVPhpIl-1" source="6-h1gdI3nwW7X6mvaEP--4" target="VFLOC5MydTTi16xht_zB-0">
          <mxGeometry relative="1" as="geometry" />
        </mxCell>
        <mxCell id="6-h1gdI3nwW7X6mvaEP--4" value="IF COMPONENTE" style="ellipse;whiteSpace=wrap;html=1;" vertex="1" parent="kk0g_EglJL_VjuVPhpIl-1">
          <mxGeometry x="455" y="810" width="105" height="40" as="geometry" />
        </mxCell>
        <mxCell id="uzinlu_8ApOdBk_AFRsC-3" style="edgeStyle=orthogonalEdgeStyle;rounded=0;orthogonalLoop=1;jettySize=auto;html=1;exitX=0.5;exitY=1;exitDx=0;exitDy=0;entryX=0.5;entryY=0;entryDx=0;entryDy=0;fontColor=#000000;strokeColor=#000000;" edge="1" parent="kk0g_EglJL_VjuVPhpIl-1" source="VFLOC5MydTTi16xht_zB-0" target="uzinlu_8ApOdBk_AFRsC-2">
          <mxGeometry relative="1" as="geometry" />
        </mxCell>
        <mxCell id="VFLOC5MydTTi16xht_zB-0" value="PRINTF" style="ellipse;whiteSpace=wrap;html=1;" vertex="1" parent="kk0g_EglJL_VjuVPhpIl-1">
          <mxGeometry x="580" y="860" width="60" height="40" as="geometry" />
        </mxCell>
        <mxCell id="AJXDblAwjwtS2LqALT0l-1" style="edgeStyle=orthogonalEdgeStyle;rounded=0;orthogonalLoop=1;jettySize=auto;html=1;exitX=0;exitY=0.5;exitDx=0;exitDy=0;entryX=0.5;entryY=1;entryDx=0;entryDy=0;fontColor=#000000;strokeColor=#000000;" edge="1" parent="kk0g_EglJL_VjuVPhpIl-1" source="UoznRs_CoEHGiO9MC1ZC-0" target="AJXDblAwjwtS2LqALT0l-0">
          <mxGeometry relative="1" as="geometry" />
        </mxCell>
        <mxCell id="UoznRs_CoEHGiO9MC1ZC-0" value="END-IF" style="ellipse;whiteSpace=wrap;html=1;" vertex="1" parent="kk0g_EglJL_VjuVPhpIl-1">
          <mxGeometry x="478.75" y="980" width="57.5" height="40" as="geometry" />
        </mxCell>
        <mxCell id="UoznRs_CoEHGiO9MC1ZC-6" value="" style="endArrow=classic;html=1;fontColor=#000000;strokeColor=#000000;exitX=0.5;exitY=1;exitDx=0;exitDy=0;entryX=1;entryY=0.5;entryDx=0;entryDy=0;" edge="1" parent="kk0g_EglJL_VjuVPhpIl-1" source="uzinlu_8ApOdBk_AFRsC-2" target="UoznRs_CoEHGiO9MC1ZC-0">
          <mxGeometry width="50" height="50" relative="1" as="geometry">
            <mxPoint x="220" y="750" as="sourcePoint" />
            <mxPoint x="270" y="700" as="targetPoint" />
          </mxGeometry>
        </mxCell>
        <mxCell id="YI-y2iF1XH5hUDAdzl6L-7" style="edgeStyle=orthogonalEdgeStyle;rounded=0;orthogonalLoop=1;jettySize=auto;html=1;exitX=0.5;exitY=1;exitDx=0;exitDy=0;entryX=0.5;entryY=0;entryDx=0;entryDy=0;fontColor=#000000;strokeColor=#000000;" edge="1" parent="kk0g_EglJL_VjuVPhpIl-1" source="YI-y2iF1XH5hUDAdzl6L-1" target="YI-y2iF1XH5hUDAdzl6L-3">
          <mxGeometry relative="1" as="geometry" />
        </mxCell>
        <mxCell id="YI-y2iF1XH5hUDAdzl6L-1" value="END-FOR" style="ellipse;whiteSpace=wrap;html=1;" vertex="1" parent="kk0g_EglJL_VjuVPhpIl-1">
          <mxGeometry x="670" y="740" width="60" height="40" as="geometry" />
        </mxCell>
        <mxCell id="YI-y2iF1XH5hUDAdzl6L-8" style="edgeStyle=orthogonalEdgeStyle;rounded=0;orthogonalLoop=1;jettySize=auto;html=1;exitX=0.5;exitY=1;exitDx=0;exitDy=0;entryX=0.5;entryY=0;entryDx=0;entryDy=0;fontColor=#000000;strokeColor=#000000;" edge="1" parent="kk0g_EglJL_VjuVPhpIl-1" source="YI-y2iF1XH5hUDAdzl6L-3" target="YI-y2iF1XH5hUDAdzl6L-4">
          <mxGeometry relative="1" as="geometry" />
        </mxCell>
        <mxCell id="YI-y2iF1XH5hUDAdzl6L-3" value="PUTS" style="ellipse;whiteSpace=wrap;html=1;" vertex="1" parent="kk0g_EglJL_VjuVPhpIl-1">
          <mxGeometry x="670" y="800" width="60" height="40" as="geometry" />
        </mxCell>
        <mxCell id="YI-y2iF1XH5hUDAdzl6L-5" style="edgeStyle=orthogonalEdgeStyle;rounded=0;orthogonalLoop=1;jettySize=auto;html=1;entryX=0;entryY=0.5;entryDx=0;entryDy=0;fontColor=#000000;strokeColor=#000000;exitX=0;exitY=0.5;exitDx=0;exitDy=0;" edge="1" parent="kk0g_EglJL_VjuVPhpIl-1" source="YI-y2iF1XH5hUDAdzl6L-6" target="C0OqrVGaK2a0d8-XwR3r-1">
          <mxGeometry relative="1" as="geometry">
            <mxPoint x="700" y="1010" as="sourcePoint" />
            <Array as="points">
              <mxPoint x="-20" y="1040" />
              <mxPoint x="-20" y="240" />
            </Array>
          </mxGeometry>
        </mxCell>
        <mxCell id="YI-y2iF1XH5hUDAdzl6L-9" style="edgeStyle=orthogonalEdgeStyle;rounded=0;orthogonalLoop=1;jettySize=auto;html=1;exitX=0.5;exitY=1;exitDx=0;exitDy=0;entryX=0.5;entryY=0;entryDx=0;entryDy=0;fontColor=#000000;strokeColor=#000000;" edge="1" parent="kk0g_EglJL_VjuVPhpIl-1" source="YI-y2iF1XH5hUDAdzl6L-4" target="YI-y2iF1XH5hUDAdzl6L-6">
          <mxGeometry relative="1" as="geometry" />
        </mxCell>
        <mxCell id="YI-y2iF1XH5hUDAdzl6L-4" value="V" style="ellipse;whiteSpace=wrap;html=1;" vertex="1" parent="kk0g_EglJL_VjuVPhpIl-1">
          <mxGeometry x="670" y="870" width="60" height="40" as="geometry" />
        </mxCell>
        <mxCell id="YmAVcSQjpyN6ofh2jLIL-1" style="edgeStyle=orthogonalEdgeStyle;rounded=0;orthogonalLoop=1;jettySize=auto;html=1;exitX=0.5;exitY=1;exitDx=0;exitDy=0;entryX=0.5;entryY=0;entryDx=0;entryDy=0;fontColor=#000000;strokeColor=#000000;" edge="1" parent="kk0g_EglJL_VjuVPhpIl-1" source="YI-y2iF1XH5hUDAdzl6L-6" target="YmAVcSQjpyN6ofh2jLIL-0">
          <mxGeometry relative="1" as="geometry" />
        </mxCell>
        <mxCell id="YI-y2iF1XH5hUDAdzl6L-6" value="WHILE (V != -1)" style="ellipse;whiteSpace=wrap;html=1;" vertex="1" parent="kk0g_EglJL_VjuVPhpIl-1">
          <mxGeometry x="650" y="1020" width="100" height="40" as="geometry" />
        </mxCell>
        <mxCell id="RgXA4-t_fFXQ05cIRQ2p-4" value="" style="endArrow=classic;html=1;fontColor=#000000;strokeColor=#000000;exitX=0.5;exitY=1;exitDx=0;exitDy=0;entryX=0.5;entryY=0;entryDx=0;entryDy=0;" edge="1" parent="kk0g_EglJL_VjuVPhpIl-1" source="6-h1gdI3nwW7X6mvaEP--4" target="UoznRs_CoEHGiO9MC1ZC-0">
          <mxGeometry width="50" height="50" relative="1" as="geometry">
            <mxPoint x="360" y="800" as="sourcePoint" />
            <mxPoint x="410" y="750" as="targetPoint" />
          </mxGeometry>
        </mxCell>
        <mxCell id="YmAVcSQjpyN6ofh2jLIL-0" value="END DO WHILE&amp;nbsp;" style="ellipse;whiteSpace=wrap;html=1;" vertex="1" parent="kk0g_EglJL_VjuVPhpIl-1">
          <mxGeometry x="650" y="1090" width="100" height="40" as="geometry" />
        </mxCell>
        <mxCell id="uzinlu_8ApOdBk_AFRsC-0" value="&lt;div&gt;R-CS = 1&amp;nbsp;&lt;/div&gt;&lt;div&gt;R-CD = 3&lt;/div&gt;&lt;div&gt;R-CC = 2&lt;/div&gt;" style="text;html=1;align=left;verticalAlign=middle;resizable=0;points=[];autosize=1;strokeColor=#FF0000;fontColor=#FF3333;fontStyle=1" vertex="1" parent="kk0g_EglJL_VjuVPhpIl-1">
          <mxGeometry x="170" y="50" width="70" height="50" as="geometry" />
        </mxCell>
        <mxCell id="uzinlu_8ApOdBk_AFRsC-2" value="BOSQUE" style="ellipse;whiteSpace=wrap;html=1;" vertex="1" parent="kk0g_EglJL_VjuVPhpIl-1">
          <mxGeometry x="582.5" y="920" width="57.5" height="40" as="geometry" />
        </mxCell>
        <mxCell id="AJXDblAwjwtS2LqALT0l-2" style="edgeStyle=orthogonalEdgeStyle;rounded=0;orthogonalLoop=1;jettySize=auto;html=1;exitX=0.5;exitY=0;exitDx=0;exitDy=0;entryX=0;entryY=0.5;entryDx=0;entryDy=0;fontColor=#000000;strokeColor=#000000;" edge="1" parent="kk0g_EglJL_VjuVPhpIl-1" source="AJXDblAwjwtS2LqALT0l-0" target="6-h1gdI3nwW7X6mvaEP--2">
          <mxGeometry relative="1" as="geometry" />
        </mxCell>
        <mxCell id="AJXDblAwjwtS2LqALT0l-0" value="I = I + 1" style="ellipse;whiteSpace=wrap;html=1;" vertex="1" parent="kk0g_EglJL_VjuVPhpIl-1">
          <mxGeometry x="360" y="890" width="80" height="40" as="geometry" />
        </mxCell>
        <mxCell id="JqQZ5jRwnEsrDDpMaxpV-0" value="I = I + 1" style="ellipse;whiteSpace=wrap;html=1;" vertex="1" parent="kk0g_EglJL_VjuVPhpIl-1">
          <mxGeometry x="270" y="650" width="80" height="40" as="geometry" />
        </mxCell>
        <mxCell id="foUqh2Qdn0f9PHTpoj8j-2" style="edgeStyle=orthogonalEdgeStyle;rounded=0;orthogonalLoop=1;jettySize=auto;html=1;exitX=0.5;exitY=1;exitDx=0;exitDy=0;entryX=0.5;entryY=0;entryDx=0;entryDy=0;fontColor=#000000;strokeColor=#000000;" edge="1" parent="kk0g_EglJL_VjuVPhpIl-1" source="foUqh2Qdn0f9PHTpoj8j-0" target="4McoZB7TT1zBa3ElJaaS-0">
          <mxGeometry relative="1" as="geometry" />
        </mxCell>
        <mxCell id="foUqh2Qdn0f9PHTpoj8j-0" value="RECORRERPROFUNDIDAD" style="ellipse;whiteSpace=wrap;html=1;" vertex="1" parent="kk0g_EglJL_VjuVPhpIl-1">
          <mxGeometry x="220" y="460" width="180" height="40" as="geometry" />
        </mxCell>
        <mxCell id="VZfb2eEglgd0cUhuKWKS-0" value="1" style="text;html=1;strokeColor=none;fillColor=none;align=center;verticalAlign=middle;whiteSpace=wrap;rounded=0;fontColor=#FF3333;" vertex="1" parent="kk0g_EglJL_VjuVPhpIl-1">
          <mxGeometry x="140" y="50" width="20" height="20" as="geometry" />
        </mxCell>
        <mxCell id="VZfb2eEglgd0cUhuKWKS-1" value="2" style="text;html=1;strokeColor=none;fillColor=none;align=center;verticalAlign=middle;whiteSpace=wrap;rounded=0;fontColor=#FF3333;" vertex="1" parent="kk0g_EglJL_VjuVPhpIl-1">
          <mxGeometry x="140" y="110" width="20" height="20" as="geometry" />
        </mxCell>
        <mxCell id="VZfb2eEglgd0cUhuKWKS-2" value="3" style="text;html=1;strokeColor=none;fillColor=none;align=center;verticalAlign=middle;whiteSpace=wrap;rounded=0;fontColor=#FF3333;" vertex="1" parent="kk0g_EglJL_VjuVPhpIl-1">
          <mxGeometry x="140" y="170" width="20" height="20" as="geometry" />
        </mxCell>
        <mxCell id="VZfb2eEglgd0cUhuKWKS-3" value="4" style="text;html=1;strokeColor=none;fillColor=none;align=center;verticalAlign=middle;whiteSpace=wrap;rounded=0;fontColor=#FF3333;" vertex="1" parent="kk0g_EglJL_VjuVPhpIl-1">
          <mxGeometry x="140" y="230" width="20" height="20" as="geometry" />
        </mxCell>
        <mxCell id="VZfb2eEglgd0cUhuKWKS-4" value="5" style="text;html=1;strokeColor=none;fillColor=none;align=center;verticalAlign=middle;whiteSpace=wrap;rounded=0;fontColor=#FF3333;" vertex="1" parent="kk0g_EglJL_VjuVPhpIl-1">
          <mxGeometry x="140" y="290" width="20" height="20" as="geometry" />
        </mxCell>
        <mxCell id="VZfb2eEglgd0cUhuKWKS-5" value="6" style="text;html=1;strokeColor=none;fillColor=none;align=center;verticalAlign=middle;whiteSpace=wrap;rounded=0;fontColor=#FF3333;" vertex="1" parent="kk0g_EglJL_VjuVPhpIl-1">
          <mxGeometry x="140" y="330" width="20" height="20" as="geometry" />
        </mxCell>
        <mxCell id="VZfb2eEglgd0cUhuKWKS-6" value="7" style="text;html=1;strokeColor=none;fillColor=none;align=center;verticalAlign=middle;whiteSpace=wrap;rounded=0;fontColor=#FF3333;" vertex="1" parent="kk0g_EglJL_VjuVPhpIl-1">
          <mxGeometry x="140" y="390" width="20" height="20" as="geometry" />
        </mxCell>
        <mxCell id="VZfb2eEglgd0cUhuKWKS-7" value="8" style="text;html=1;strokeColor=none;fillColor=none;align=center;verticalAlign=middle;whiteSpace=wrap;rounded=0;fontColor=#FF3333;" vertex="1" parent="kk0g_EglJL_VjuVPhpIl-1">
          <mxGeometry x="140" y="440" width="20" height="20" as="geometry" />
        </mxCell>
        <mxCell id="VZfb2eEglgd0cUhuKWKS-8" value="9" style="text;html=1;strokeColor=none;fillColor=none;align=center;verticalAlign=middle;whiteSpace=wrap;rounded=0;fontColor=#FF3333;" vertex="1" parent="kk0g_EglJL_VjuVPhpIl-1">
          <mxGeometry x="330" y="380" width="20" height="20" as="geometry" />
        </mxCell>
        <mxCell id="VZfb2eEglgd0cUhuKWKS-9" value="10" style="text;html=1;strokeColor=none;fillColor=none;align=center;verticalAlign=middle;whiteSpace=wrap;rounded=0;fontColor=#FF3333;" vertex="1" parent="kk0g_EglJL_VjuVPhpIl-1">
          <mxGeometry x="330" y="440" width="20" height="20" as="geometry" />
        </mxCell>
        <mxCell id="VZfb2eEglgd0cUhuKWKS-10" value="11" style="text;html=1;strokeColor=none;fillColor=none;align=center;verticalAlign=middle;whiteSpace=wrap;rounded=0;fontColor=#FF3333;" vertex="1" parent="kk0g_EglJL_VjuVPhpIl-1">
          <mxGeometry x="320" y="510" width="20" height="20" as="geometry" />
        </mxCell>
        <mxCell id="VZfb2eEglgd0cUhuKWKS-11" value="12" style="text;html=1;strokeColor=none;fillColor=none;align=center;verticalAlign=middle;whiteSpace=wrap;rounded=0;fontColor=#FF3333;" vertex="1" parent="kk0g_EglJL_VjuVPhpIl-1">
          <mxGeometry x="340" y="565" width="20" height="20" as="geometry" />
        </mxCell>
        <mxCell id="VZfb2eEglgd0cUhuKWKS-12" value="13" style="text;html=1;strokeColor=none;fillColor=none;align=center;verticalAlign=middle;whiteSpace=wrap;rounded=0;fontColor=#FF3333;" vertex="1" parent="kk0g_EglJL_VjuVPhpIl-1">
          <mxGeometry x="340" y="640" width="20" height="20" as="geometry" />
        </mxCell>
        <mxCell id="VZfb2eEglgd0cUhuKWKS-13" value="14" style="text;html=1;strokeColor=none;fillColor=none;align=center;verticalAlign=middle;whiteSpace=wrap;rounded=0;fontColor=#FF3333;" vertex="1" parent="kk0g_EglJL_VjuVPhpIl-1">
          <mxGeometry x="510" y="610" width="20" height="20" as="geometry" />
        </mxCell>
        <mxCell id="VZfb2eEglgd0cUhuKWKS-14" value="15" style="text;html=1;strokeColor=none;fillColor=none;align=center;verticalAlign=middle;whiteSpace=wrap;rounded=0;fontColor=#FF3333;" vertex="1" parent="kk0g_EglJL_VjuVPhpIl-1">
          <mxGeometry x="525" y="680" width="20" height="20" as="geometry" />
        </mxCell>
        <mxCell id="VZfb2eEglgd0cUhuKWKS-15" value="16" style="text;html=1;strokeColor=none;fillColor=none;align=center;verticalAlign=middle;whiteSpace=wrap;rounded=0;fontColor=#FF3333;" vertex="1" parent="kk0g_EglJL_VjuVPhpIl-1">
          <mxGeometry x="525" y="730" width="20" height="20" as="geometry" />
        </mxCell>
        <mxCell id="VZfb2eEglgd0cUhuKWKS-16" value="17" style="text;html=1;strokeColor=none;fillColor=none;align=center;verticalAlign=middle;whiteSpace=wrap;rounded=0;fontColor=#FF3333;" vertex="1" parent="kk0g_EglJL_VjuVPhpIl-1">
          <mxGeometry x="530" y="790" width="20" height="20" as="geometry" />
        </mxCell>
        <mxCell id="VZfb2eEglgd0cUhuKWKS-17" value="18" style="text;html=1;strokeColor=none;fillColor=none;align=center;verticalAlign=middle;whiteSpace=wrap;rounded=0;fontColor=#FF3333;" vertex="1" parent="kk0g_EglJL_VjuVPhpIl-1">
          <mxGeometry x="620" y="840" width="20" height="20" as="geometry" />
        </mxCell>
        <mxCell id="VZfb2eEglgd0cUhuKWKS-18" value="19" style="text;html=1;strokeColor=none;fillColor=none;align=center;verticalAlign=middle;whiteSpace=wrap;rounded=0;fontColor=#FF3333;" vertex="1" parent="kk0g_EglJL_VjuVPhpIl-1">
          <mxGeometry x="640" y="930" width="20" height="20" as="geometry" />
        </mxCell>
        <mxCell id="VZfb2eEglgd0cUhuKWKS-19" value="20" style="text;html=1;strokeColor=none;fillColor=none;align=center;verticalAlign=middle;whiteSpace=wrap;rounded=0;fontColor=#FF3333;" vertex="1" parent="kk0g_EglJL_VjuVPhpIl-1">
          <mxGeometry x="536.25" y="1000" width="20" height="20" as="geometry" />
        </mxCell>
        <mxCell id="VZfb2eEglgd0cUhuKWKS-20" value="21" style="text;html=1;strokeColor=none;fillColor=none;align=center;verticalAlign=middle;whiteSpace=wrap;rounded=0;fontColor=#FF3333;" vertex="1" parent="kk0g_EglJL_VjuVPhpIl-1">
          <mxGeometry x="340" y="900" width="20" height="20" as="geometry" />
        </mxCell>
        <mxCell id="VZfb2eEglgd0cUhuKWKS-21" value="22" style="text;html=1;strokeColor=none;fillColor=none;align=center;verticalAlign=middle;whiteSpace=wrap;rounded=0;fontColor=#FF3333;" vertex="1" parent="kk0g_EglJL_VjuVPhpIl-1">
          <mxGeometry x="730" y="750" width="20" height="20" as="geometry" />
        </mxCell>
        <mxCell id="VZfb2eEglgd0cUhuKWKS-22" value="23" style="text;html=1;strokeColor=none;fillColor=none;align=center;verticalAlign=middle;whiteSpace=wrap;rounded=0;fontColor=#FF3333;" vertex="1" parent="kk0g_EglJL_VjuVPhpIl-1">
          <mxGeometry x="730" y="810" width="20" height="20" as="geometry" />
        </mxCell>
        <mxCell id="VZfb2eEglgd0cUhuKWKS-23" value="24" style="text;html=1;strokeColor=none;fillColor=none;align=center;verticalAlign=middle;whiteSpace=wrap;rounded=0;fontColor=#FF3333;" vertex="1" parent="kk0g_EglJL_VjuVPhpIl-1">
          <mxGeometry x="730" y="880" width="20" height="20" as="geometry" />
        </mxCell>
        <mxCell id="VZfb2eEglgd0cUhuKWKS-24" value="25" style="text;html=1;strokeColor=none;fillColor=none;align=center;verticalAlign=middle;whiteSpace=wrap;rounded=0;fontColor=#FF3333;" vertex="1" parent="kk0g_EglJL_VjuVPhpIl-1">
          <mxGeometry x="750" y="1030" width="20" height="20" as="geometry" />
        </mxCell>
        <mxCell id="VZfb2eEglgd0cUhuKWKS-25" value="26" style="text;html=1;strokeColor=none;fillColor=none;align=center;verticalAlign=middle;whiteSpace=wrap;rounded=0;fontColor=#FF3333;" vertex="1" parent="kk0g_EglJL_VjuVPhpIl-1">
          <mxGeometry x="750" y="1100" width="20" height="20" as="geometry" />
        </mxCell>
        <mxCell id="rTei9GrpDvHXnusNN8Ug-0" value="CS = 26 * 100 = 100&lt;br&gt;&amp;nbsp; &amp;nbsp; &amp;nbsp; &amp;nbsp; &amp;nbsp;26&lt;br&gt;CD = 30 * 100 = 100&lt;br&gt;&amp;nbsp; &amp;nbsp; &amp;nbsp; &amp;nbsp; &amp;nbsp;30&lt;br&gt;CC = 2 * 100 =&amp;nbsp; 100&lt;br&gt;&amp;nbsp; &amp;nbsp; &amp;nbsp; &amp;nbsp; &amp;nbsp;2" style="text;html=1;strokeColor=none;fillColor=none;align=left;verticalAlign=middle;whiteSpace=wrap;rounded=0;labelBackgroundColor=none;" vertex="1" parent="kk0g_EglJL_VjuVPhpIl-1">
          <mxGeometry x="250" y="50" width="150" height="80" as="geometry" />
        </mxCell>
        <mxCell id="BWwKlQW-BjREZ-27wBBU-0" value="" style="endArrow=none;html=1;fontColor=#000000;strokeColor=#000000;" edge="1" parent="kk0g_EglJL_VjuVPhpIl-1">
          <mxGeometry width="50" height="50" relative="1" as="geometry">
            <mxPoint x="270" y="59.5" as="sourcePoint" />
            <mxPoint x="300" y="59.5" as="targetPoint" />
          </mxGeometry>
        </mxCell>
        <mxCell id="BWwKlQW-BjREZ-27wBBU-1" value="" style="endArrow=none;html=1;fontColor=#000000;strokeColor=#000000;" edge="1" parent="kk0g_EglJL_VjuVPhpIl-1">
          <mxGeometry width="50" height="50" relative="1" as="geometry">
            <mxPoint x="270" y="89.5" as="sourcePoint" />
            <mxPoint x="300" y="89.5" as="targetPoint" />
          </mxGeometry>
        </mxCell>
        <mxCell id="BWwKlQW-BjREZ-27wBBU-2" value="" style="endArrow=none;html=1;fontColor=#000000;strokeColor=#000000;" edge="1" parent="kk0g_EglJL_VjuVPhpIl-1">
          <mxGeometry width="50" height="50" relative="1" as="geometry">
            <mxPoint x="270" y="119.5" as="sourcePoint" />
            <mxPoint x="300" y="119.5" as="targetPoint" />
          </mxGeometry>
        </mxCell>
        <mxCell id="EANNenSOWrRIzy78T2jQ-0" value="C = # Regiones&lt;br&gt;C = 6&lt;br&gt;C = (aristas - nodos) + 2&lt;br&gt;C = (30 - 26) + 2 = 6&lt;br&gt;C = nodo predicado + 1&lt;br&gt;C = 5 + 1 = 6" style="text;html=1;strokeColor=none;fillColor=none;align=left;verticalAlign=middle;whiteSpace=wrap;rounded=0;labelBackgroundColor=none;fontColor=none;" vertex="1" parent="kk0g_EglJL_VjuVPhpIl-1">
          <mxGeometry x="180" y="130" width="150" height="110" as="geometry" />
        </mxCell>
        <mxCell id="sWE1bjcn87rZxNomwVbS-0" value="Camino 1: 1-2-3-4-5-6-7-8-6-9-10-11-12-13-11-14-15-16-17-18-19-20-21-15-22-23-24-25-26&lt;br&gt;Camino 2: 1-2-3-4-5-6-7-8-6-9-10-11-12-13-11-14-15-16-17-20-21-15-22-23-24-25-26" style="text;html=1;strokeColor=none;fillColor=none;align=left;verticalAlign=middle;whiteSpace=wrap;rounded=0;labelBackgroundColor=none;fontStyle=1;fontColor=#0066CC;" vertex="1" parent="kk0g_EglJL_VjuVPhpIl-1">
          <mxGeometry x="170" y="240" width="500" height="50" as="geometry" />
        </mxCell>
      </root>
    </mxGraphModel>
  </diagram>
</mxfile>
